<svg xmlns="http://www.w3.org/2000/svg" viewBox="0 0 241.551 51.151">
    <path d="M217.259,5.361h11.005c5.19,0,8.212,2.566,8.212,7.47,0,4.676-2.737,7.584-8.5,7.584h-10.72Zm-5.132,36.324h5.132V24.578h11.12c8.9,0,13.172-4.5,13.172-11.975a11.774,11.774,0,0,0-2.737-7.756C236.7,2.338,233.4.913,229.12.913H212.127Zm-38.719,0h5.816l10.949-17.164h.114l10.492,17.164h6.159L193.2,20.871,206.538.913h-5.645L190.572,17.222h-.114L180.364.913h-5.93l13.115,19.9Zm-28-4.505V5.361h9.523c9.58,0,13,6.5,13,16.08s-3.821,15.739-13.4,15.739Zm-5.132,4.505H154.7c12.26,0,18.476-8.04,18.476-20.244S167.363.913,155.1.913H140.277Z" fill="rgba(255,255,255,0.5)"/>
    <path d="M113.533,12.2h-4.619V41.685h4.619V23.551a7.8,7.8,0,0,1,8.1-8.154c4.163,0,6.672,2.166,6.672,5.987v20.3h4.619v-20.7c0-6.1-3.763-9.466-9.922-9.466a11.051,11.051,0,0,0-9.352,4.562h-.114ZM90.268,15.111c5.3,0,8.325,3.593,8.61,9.466H81.144c.684-5.36,3.649-9.466,9.124-9.466m.285,27.372c6.672,0,11.291-3.593,12.659-9.922H98.707C97.681,36.552,94.83,38.6,90.553,38.6c-5.931,0-9.181-4.562-9.523-10.549h22.809c0-9.751-4.733-16.594-13.571-16.594-8.383,0-13.971,6.957-13.971,15.51s5.246,15.511,14.256,15.511M59.59,38.662c-6.786,0-9.352-5.189-9.352-11.576S53.2,15.454,59.647,15.454c5.588,0,8.382,5.018,8.382,11.632,0,6.672-2.794,11.576-8.439,11.576M45.9,51.151h4.619V38.206h.114c2.452,3.136,5.3,4.334,9.3,4.334,7.983,0,12.83-6.045,12.83-15.511,0-9.808-5.189-15.51-12.659-15.51a11.069,11.069,0,0,0-9.466,4.847h-.114V12.2H45.9ZM19.958,38.035c-9.58,0-14.712-7.185-14.712-16.765S10.378,4.448,19.958,4.448,34.67,11.69,34.67,21.27,29.538,38.035,19.958,38.035m0,4.505c12.317,0,19.958-9.067,19.958-21.27S32.275,0,19.958,0,0,9.067,0,21.27,7.641,42.54,19.958,42.54" fill="rgba(255,255,255,0.5)"/>
</svg>