<svg version="1.0" xmlns="http://www.w3.org/2000/svg" viewBox="0 0 1201.000000 1201.000000" preserveAspectRatio="xMidYMid meet">
    <g transform="translate(0.000000,1201.000000) scale(0.100000,-0.100000)" fill="#e6ff2a" stroke="none">
        <path d="M5765 8873 c-1236 -111 -2252 -973 -2555 -2168 -65 -256 -84 -420 -84 -710 1 -284 18 -430 80 -684 202 -823 760 -1518 1519 -1891 238 -117 464 -195 705 -243 225 -45 301 -52 580 -51 223 0 288 4 407 22 523 82 984 283 1393 608 119 95 352 330 448 451 319 404 516 862 599 1393 26 165 26 635 0 800 -100 640 -359 1165 -797 1613 -472 485 -1082 780 -1758 852 -122 13 -430 18 -537 8z"/>
    </g>
</svg>
