<svg xmlns="http://www.w3.org/2000/svg" viewBox="0 0 142.768 21.899">
    <path d="M0,10.95C0,4.62,4.32,0,10.5,0s10.5,4.62,10.5,10.95-4.32,10.95-10.5,10.95S0,17.279,0,10.95ZM17.969,10.95c0-4.74-2.88-8.16-7.469-8.16S3.03,6.21,3.03,10.95s2.88,8.16,7.47,8.16,7.469-3.42,7.469-8.16Z"
          style="fill:#1d1d1b; stroke-width:0px;"/>
    <path d="M25.41.45h7.53c4.02,0,6.6,2.52,6.6,6.51,0,4.08-2.79,6.6-7.32,6.6h-3.9v7.89h-2.91V.45ZM36.509,6.96c0-2.49-1.5-3.87-4.17-3.87h-4.02v7.92h3.6c2.97,0,4.59-1.41,4.59-4.05Z"
          style="fill:#1d1d1b; stroke-width:0px;"/>
    <path d="M56.52,18.809v2.64h-13.08V.45h12.929v2.64h-10.02v6h9.42v2.58h-9.42v7.14h10.17Z"
          style="fill:#1d1d1b; stroke-width:0px;"/>
    <path d="M61.169.45h4.41l9.99,17.669V.45h2.73v20.999h-3.99L63.899,3.18v18.269h-2.73V.45Z"
          style="fill:#1d1d1b; stroke-width:0px;"/>
    <path d="M83.219.45h9c7.02,0,10.53,4.17,10.53,10.229,0,6.15-3.63,10.77-10.83,10.77h-8.7V.45ZM96.239,10.8c0-3-1.44-4.86-4.29-4.86h-2.55v10.02h2.43c2.94,0,4.41-2.13,4.41-5.16Z"
          style="fill:#1d1d1b; stroke-width:0px;"/>
    <path d="M108.689,10.47L102.779.45h6.87l3.18,6.209,3.27-6.209h7.109l-6.03,10.02,6.36,10.979h-7.26l-3.45-6.93-3.48,6.93h-6.93l6.27-10.979Z"
          style="fill:#1d1d1b; stroke-width:0px;"/>
    <path d="M125.459.45h9.209c5.13,0,8.1,2.76,8.1,7.47,0,4.2-2.94,7.08-7.89,7.08h-3.24v6.45h-6.18V.45ZM136.438,7.89c0-1.8-1.14-2.49-2.64-2.49h-2.16v5.22h1.95c1.74,0,2.85-.87,2.85-2.73Z"
          style="fill:#1d1d1b; stroke-width:0px;"/>
</svg>